<?xml version="1.0" standalone="no"?>
<!DOCTYPE svg PUBLIC "-//W3C//DTD SVG 20010904//EN"
 "http://www.w3.org/TR/2001/REC-SVG-20010904/DTD/svg10.dtd">
<svg version="1.0" xmlns="http://www.w3.org/2000/svg"
 width="654.000000pt" height="654.000000pt" viewBox="0 0 654.000000 654.000000"
 preserveAspectRatio="xMidYMid meet">
<metadata>
Created by potrace 1.14, written by Peter Selinger 2001-2017
</metadata>
<g transform="translate(0.000000,654.000000) scale(0.100000,-0.100000)"
fill="#000000" stroke="none">
<path d="M5145 6528 c-218 -37 -417 -119 -614 -256 -248 -170 -461 -420 -591
-694 -50 -106 -104 -258 -114 -323 -4 -20 -12 -58 -18 -83 -14 -52 -17 -318
-6 -397 5 -27 15 -75 24 -105 9 -30 18 -65 21 -78 3 -12 9 -25 14 -28 5 -3 9
-11 9 -19 0 -7 18 -46 41 -85 l41 -73 -44 -46 c-43 -45 -121 -129 -169 -182
-37 -41 -85 -95 -194 -215 -55 -60 -136 -150 -180 -198 -44 -49 -85 -94 -91
-100 -5 -6 -34 -38 -63 -71 -30 -33 -74 -83 -100 -110 -25 -28 -82 -91 -126
-140 -44 -49 -107 -119 -140 -155 -60 -66 -196 -216 -226 -252 -9 -10 -50 -55
-91 -101 -42 -45 -87 -95 -100 -112 -14 -16 -45 -51 -69 -76 -24 -25 -69 -74
-99 -109 -30 -34 -68 -77 -85 -95 -16 -18 -47 -52 -69 -76 -21 -24 -72 -81
-114 -126 -41 -46 -83 -93 -94 -105 -11 -13 -32 -37 -48 -55 -16 -17 -70 -78
-121 -135 -51 -57 -99 -110 -108 -119 -9 -9 -45 -49 -81 -90 -36 -40 -72 -80
-80 -89 -8 -9 -49 -54 -90 -100 -41 -47 -96 -107 -121 -135 -25 -27 -66 -72
-90 -100 -24 -27 -46 -52 -50 -55 -3 -3 -48 -52 -99 -110 -52 -58 -99 -110
-105 -116 -5 -6 -46 -51 -90 -100 -44 -49 -105 -116 -135 -149 -30 -32 -59
-64 -65 -71 -9 -10 -143 -155 -226 -246 -106 -114 -33 -331 139 -415 50 -24
69 -28 150 -28 l93 0 32 35 c18 19 57 64 87 100 30 36 57 67 60 70 3 3 86 99
184 215 99 116 184 215 190 220 6 6 35 39 65 75 30 36 60 70 66 75 5 6 78 89
160 185 83 96 157 182 165 190 8 9 26 30 40 46 144 168 208 242 223 259 10 11
51 58 90 105 40 46 79 91 87 100 17 18 53 60 250 290 73 85 155 180 181 210
26 30 58 66 69 80 12 14 34 39 48 55 15 17 52 59 82 95 30 36 57 67 60 70 3 3
32 37 65 75 33 39 64 75 70 81 5 6 30 35 55 65 25 29 59 69 77 88 17 20 152
176 299 346 146 171 278 324 293 340 14 17 67 77 116 135 49 58 94 110 100
116 5 6 33 37 60 69 28 32 55 63 60 69 6 6 33 38 60 71 28 32 57 66 65 75 8 8
29 32 46 53 l32 39 68 -22 c587 -184 1335 221 1668 905 48 97 100 232 112 290
2 11 12 54 21 95 14 57 18 119 18 255 0 156 -3 191 -23 260 -61 217 -146 351
-303 478 -49 39 -201 123 -241 132 -13 3 -60 13 -105 24 -89 20 -284 25 -378
9z"/>
</g>
</svg>
